<svg width="181" height="47" fill="none" xmlns="http://www.w3.org/2000/svg"><path d="M63.063 18h-1.508l-5.727-8.766V18H54.32V6.625h1.508l5.742 8.805V6.625h1.492V18zm12.406 0H73.96v-5.258h-5.734V18h-1.5V6.625h1.5v4.89h5.734v-4.89h1.508V18zm10.086-2.969h-4.766L79.72 18h-1.547l4.344-11.375h1.312L88.18 18h-1.54l-1.085-2.969zm-4.313-1.234h3.867l-1.937-5.32-1.93 5.32zm2.79-7.922h-1.243l-2.016-2.297h1.743l1.515 2.297zm15.359 5.11l2.726-4.36h1.766l-3.594 5.64 3.68 5.735h-1.781l-2.797-4.438L96.578 18h-1.773l3.687-5.734-3.601-5.641h1.757l2.743 4.36zm15.328-4.36v7.734c-.005 1.073-.344 1.95-1.016 2.633-.667.682-1.573 1.065-2.719 1.149l-.398.015c-1.245 0-2.237-.336-2.977-1.008-.739-.671-1.114-1.596-1.125-2.773v-7.75h1.485v7.703c0 .823.226 1.464.679 1.922.454.453 1.099.68 1.938.68.849 0 1.497-.227 1.945-.68.453-.453.68-1.091.68-1.914V6.625h1.508zm9.476 8.406h-4.765L118.359 18h-1.547l4.344-11.375h1.313L126.82 18h-1.539l-1.086-2.969zm-4.312-1.234h3.867l-1.938-5.32-1.929 5.32zm1.375-9.969h1.187l2.266 2.055h-1.539l-1.32-1.242-1.329 1.242h-1.546l2.281-2.055zm3.984-1.351h1.563L125.234 4.5h-1.101l1.109-2.023zm10.953 5.382h-3.656V18h-1.492V7.86h-3.649V6.624h8.797v1.234zM143.539 18V6.625h3.719c1.234 0 2.161.255 2.781.766.625.51.938 1.265.938 2.265 0 .531-.151 1.003-.454 1.414-.302.407-.713.722-1.234.946.615.171 1.099.5 1.453.984.36.48.539 1.052.539 1.719 0 1.02-.33 1.823-.992 2.406-.661.583-1.596.875-2.805.875h-3.945zm1.5-5.32v4.093h2.477c.698 0 1.247-.18 1.648-.539.406-.364.609-.864.609-1.5 0-1.37-.744-2.054-2.234-2.054h-2.5zm0-1.203h2.266c.656 0 1.179-.165 1.57-.493.396-.328.594-.773.594-1.336 0-.625-.183-1.078-.547-1.359-.365-.286-.919-.43-1.664-.43h-2.219v3.618zm15.75 3.554h-4.766L154.953 18h-1.547l4.344-11.375h1.312L163.414 18h-1.539l-1.086-2.969zm-4.312-1.234h3.867l-1.938-5.32-1.929 5.32zm1.476-8.04l-.008-1.194c.391-.027.677-.079.86-.157a.423.423 0 00.273-.422c0-.203-.12-.354-.359-.453-.235-.104-.547-.156-.938-.156l.055-.828c.776 0 1.365.135 1.766.406.401.266.601.62.601 1.063 0 .317-.101.58-.305.789-.203.208-.505.34-.906.398l-.008.555h-1.031zM174.688 18h-1.508l-5.727-8.766V18h-1.508V6.625h1.508l5.742 8.805V6.625h1.493V18zM58.031 32.984l2.727-4.359h1.765l-3.593 5.64L62.61 40h-1.782l-2.797-4.438L55.22 40h-1.774l3.688-5.734-3.602-5.641h1.758l2.742 4.36zm13.602 4.047h-4.766L65.797 40H64.25l4.344-11.375h1.312L74.258 40h-1.54l-1.085-2.969zm-4.313-1.234h3.868l-1.938-5.32-1.93 5.32zm4.328-8.078v.078h-1.195l-1.172-1.328-1.164 1.328h-1.195v-.094l1.922-2.125h.875l1.93 2.14zm7.875 6.617l2.97-5.711h1.702l-3.922 7.133V40h-1.5v-4.242l-3.921-7.133h1.718l2.953 5.71zM91.633 40V28.625h3.21c.99 0 1.865.219 2.626.656a4.415 4.415 0 011.758 1.867c.416.808.627 1.735.632 2.782v.726c0 1.073-.208 2.013-.625 2.82a4.338 4.338 0 01-1.773 1.86c-.766.432-1.659.654-2.68.664h-3.148zm1.5-10.14v8.913h1.578c1.156 0 2.055-.359 2.695-1.078.646-.718.969-1.742.969-3.07v-.664c0-1.292-.305-2.294-.914-3.008-.604-.719-1.464-1.083-2.578-1.094h-1.75zm18.008-1.235v1.664c.599-.057 1.023-.263 1.273-.617.255-.36.383-.922.383-1.688h1.242c0 1.094-.232 1.914-.695 2.461-.459.542-1.193.844-2.203.907v5.015c-.006 1.037-.326 1.893-.961 2.57-.636.678-1.503 1.073-2.602 1.188l-.57.031c-1.245 0-2.237-.336-2.977-1.008-.739-.671-1.114-1.596-1.125-2.773v-7.75h1.485v7.703c0 .823.226 1.464.679 1.922.453.453 1.099.68 1.938.68.849 0 1.497-.227 1.945-.68.453-.453.68-1.091.68-1.914v-7.711h1.508zm-4.821 13.352c0-.235.071-.433.211-.594.146-.162.36-.242.641-.242s.495.08.64.242c.146.161.219.36.219.594 0 .234-.073.43-.219.586-.145.156-.359.234-.64.234s-.495-.078-.641-.234a.846.846 0 01-.211-.586zM124 40h-1.508l-5.726-8.766V40h-1.508V28.625h1.508l5.742 8.805v-8.805H124V40zm12.062-1.492c-.385.552-.924.966-1.617 1.242-.687.27-1.489.406-2.406.406-.927 0-1.75-.216-2.469-.648-.718-.438-1.276-1.058-1.672-1.86-.39-.802-.591-1.731-.601-2.789v-.992c0-1.713.398-3.041 1.195-3.984.802-.943 1.927-1.414 3.375-1.414 1.188 0 2.143.304 2.867.914.724.604 1.167 1.463 1.328 2.578h-1.5c-.281-1.505-1.177-2.258-2.687-2.258-1.005 0-1.768.354-2.289 1.063-.516.703-.776 1.724-.781 3.062v.93c0 1.276.291 2.291.875 3.047.583.75 1.372 1.125 2.367 1.125.562 0 1.055-.063 1.476-.188a2.282 2.282 0 001.047-.633v-2.554h-2.632v-1.22h4.124v4.173z" fill="#4F4F4F"/><mask id="a" maskUnits="userSpaceOnUse" x="0" y="1" width="46" height="46"><path fill-rule="evenodd" clip-rule="evenodd" d="M0 1.238h45.504V46.33H0V1.238z" fill="#fff"/></mask><g mask="url(#a)"><path fill-rule="evenodd" clip-rule="evenodd" d="M22.752 46.33c-.905-1.411-2.76-3.408-4.955-3.47H0V1.236h18.215c1.713.092 3.299.896 4.537 2.097 1.238-1.201 2.824-2.005 4.537-2.097h18.215V42.86H27.707c-2.194.062-4.05 2.059-4.955 3.47zm0-38.79c-1.126-.91-2.685-2.629-4.636-2.629H3.698v34.274H18c2.019 0 3.711.768 4.752 2.19 1.04-1.422 2.733-2.19 4.752-2.19h14.302V4.911H27.388c-1.951 0-3.51 1.719-4.636 2.63z" fill="#02010E"/></g><mask id="b" maskUnits="userSpaceOnUse" x="0" y="1" width="46" height="45"><path fill-rule="evenodd" clip-rule="evenodd" d="M0 45.422h45.592V1.15H0v44.272z" fill="#fff"/></mask><g mask="url(#b)"><path fill-rule="evenodd" clip-rule="evenodd" d="M7.124 36.853h4.602v-4.67H7.124v4.67zm32.751-22.059v.023l.018.006-.018.059v.96H24.013v7.733H22.98v-7.733h-5.637v-1.048L23.5 9.719l16.3 5.075h.075zm-20.767 0h3.872V11.48l-3.872 3.313zm4.905-3.82v3.82h12.265l-12.265-3.82zm11.26 14.442h4.602v-4.669h-4.602v4.67zm-22.514 0h4.603v-4.669H12.76v4.67zm-5.635 0h4.602v-4.669H7.124v4.67zm0 5.718h4.602v-4.67H7.124v4.67zm5.635 0h4.603v-4.67H12.76v4.67zm5.636 0h4.602v-4.67h-4.602v4.67zm5.636 0h4.603v-4.67H24.03v4.67zm11.242 5.719h4.602v-4.67h-4.602v4.67zm-5.637 0h4.603v-4.67h-4.603v4.67zm-5.605 0h4.603v-4.67H24.03v4.67zm-5.636 0h4.602v-4.67h-4.602v4.67zm-5.636 0h4.603v-4.67H12.76v4.67z" fill="#02010E"/></g></svg>